<svg width="18" height="18" viewBox="0 0 18 18" fill="none" xmlns="http://www.w3.org/2000/svg">
<path d="M0.749903 7.27883C0.800673 7.49888 0.941013 7.65269 1.08969 7.80421C2.1845 8.91893 3.27531 10.0378 4.37374 11.1488C4.49305 11.2694 4.52496 11.384 4.49776 11.5477C4.22723 13.1791 3.96287 14.812 3.69198 16.4433C3.64629 16.7182 3.70032 16.9508 3.91319 17.1202C4.13367 17.2957 4.37047 17.2809 4.60982 17.1488C6.0125 16.3732 7.41699 15.6015 8.8175 14.8226C8.95058 14.7484 9.05285 14.7522 9.18412 14.8253C10.5745 15.5981 11.9685 16.3633 13.3595 17.1343C13.5267 17.2272 13.6968 17.2744 13.881 17.2283C14.1737 17.1556 14.3713 16.8396 14.3187 16.5145C14.0899 15.0998 13.856 13.6862 13.6246 12.2722C13.5797 11.9981 13.5405 11.7232 13.4915 11.4499C13.4741 11.3521 13.4966 11.2839 13.5648 11.2146C14.698 10.0599 15.8287 8.90218 16.9623 7.74787C17.1284 7.57883 17.2662 7.39876 17.2485 7.14178C17.2271 6.83302 17.012 6.60383 16.6969 6.55548C15.6601 6.39711 14.623 6.24368 13.5858 6.08683C13.0197 6.00117 12.4544 5.90827 11.8879 5.82794C11.7603 5.80967 11.7215 5.72096 11.6758 5.62426C11.1957 4.60282 10.7152 3.58175 10.2354 2.5603C10.0167 2.09508 9.7948 1.63137 9.58375 1.16233C9.46553 0.900406 9.27768 0.75231 9.00607 0.750025C8.72647 0.747741 8.5379 0.900406 8.41352 1.16728C7.72523 2.6452 7.02933 4.11893 6.33996 5.59647C6.27359 5.73886 6.1978 5.81348 6.03462 5.83746C4.46657 6.06779 2.90071 6.31183 1.33339 6.54901C1.02297 6.59584 0.833672 6.77744 0.74954 7.08886V7.27883H0.749903Z" fill="#FFA655"/>
</svg>
